<?xml version="1.0" standalone="no"?>
<!DOCTYPE svg PUBLIC "-//W3C//DTD SVG 20010904//EN"
 "http://www.w3.org/TR/2001/REC-SVG-20010904/DTD/svg10.dtd">
<svg version="1.0" xmlns="http://www.w3.org/2000/svg"
 width="300.000000pt" height="67.000000pt" viewBox="0 0 300.000000 67.000000"
 preserveAspectRatio="xMidYMid meet">
<metadata>
Created by potrace 1.10, written by Peter Selinger 2001-2011
</metadata>
<g transform="translate(0.000000,67.000000) scale(0.050000,-0.050000)"
fill="#ffffff" stroke="none">
<path d="M4400 1180 c-116 -116 33 -287 160 -184 87 70 30 224 -82 224 -21 0
-56 -18 -78 -40z"/>
<path d="M120 1184 c0 -11 34 -28 75 -38 l75 -17 5 -457 c6 -494 3 -512 -97
-512 -32 0 -58 -10 -58 -22 0 -46 778 -14 872 36 230 123 201 405 -47 472
-105 28 -107 41 -6 71 210 63 216 321 11 429 -90 47 -830 81 -830 38z m550
-63 c247 -58 188 -421 -69 -421 l-61 0 0 220 c0 241 -6 232 130 201z m134
-559 c131 -147 33 -382 -159 -382 -93 0 -105 29 -105 257 l0 208 104 -10 c84
-8 114 -22 160 -73z"/>
<path d="M3860 1185 c0 -9 27 -26 60 -39 l60 -23 0 -174 c0 -166 -2 -173 -35
-143 -195 176 -465 -21 -465 -339 0 -291 252 -472 438 -315 l62 52 0 -54 c0
-52 2 -53 85 -37 47 8 209 13 360 9 274 -6 320 2 225 38 l-50 19 0 331 0 330
-115 0 c-63 0 -135 6 -160 13 -32 8 -45 3 -45 -18 0 -17 18 -35 40 -41 48 -12
63 -597 16 -626 -13 -8 -27 -4 -31 8 -5 13 -21 24 -36 24 -62 0 -72 80 -67
537 l5 453 -173 6 c-96 3 -174 -2 -174 -11z m62 -443 c133 -134 63 -580 -87
-558 -163 23 -155 616 9 616 10 0 45 -26 78 -58z"/>
<path d="M2240 849 c-359 -159 -293 -749 84 -749 118 0 197 38 265 127 90 118
65 147 -44 51 -111 -97 -217 -63 -288 92 -59 131 -60 130 176 130 l212 0 -13
85 c-36 219 -217 341 -392 264z m132 -44 c39 -26 68 -100 68 -174 l0 -71 -110
0 c-103 0 -110 3 -110 49 0 127 87 239 152 196z"/>
<path d="M3116 859 c-30 -8 -82 -35 -115 -58 -59 -42 -61 -42 -61 -5 0 34 -19
40 -145 49 -154 12 -218 -10 -128 -44 l53 -20 0 -286 c-1 -297 -4 -316 -70
-346 -28 -14 17 -21 158 -25 223 -6 232 -4 174 54 -120 120 -34 598 103 578
71 -10 80 -546 11 -600 -45 -34 -40 -35 159 -36 188 0 263 20 167 45 -36 10
-40 34 -45 302 -8 353 -69 444 -261 392z"/>
<path d="M4926 861 c-197 -49 -295 -215 -174 -294 92 -60 225 64 150 139 -66
66 47 139 131 84 38 -25 47 -48 47 -126 l0 -95 -141 -68 c-235 -114 -320 -257
-213 -358 62 -58 159 -55 265 7 l85 49 32 -49 c45 -68 167 -70 245 -3 l55 48
38 -48 c46 -58 152 -64 201 -10 73 80 11 223 -97 223 -54 0 -130 -63 -130
-108 0 -36 -84 -58 -104 -26 -8 13 -14 128 -12 254 4 337 -107 449 -378 381z
m121 -615 c-138 -101 -192 70 -62 197 l85 82 6 -127 c5 -102 -1 -132 -29 -152z"/>
<path d="M1160 828 c0 -13 18 -28 40 -34 37 -10 40 -27 40 -259 0 -137 10
-277 21 -311 45 -128 224 -168 335 -74 72 60 84 62 84 10 0 -37 13 -40 161
-40 103 0 157 7 149 20 -7 11 -24 20 -39 20 -44 0 -51 50 -51 377 l0 313 -148
0 c-148 0 -218 -22 -138 -43 135 -35 77 -609 -62 -607 -70 1 -77 33 -80 339
l-2 303 -155 4 c-107 4 -155 -2 -155 -18z"/>
</g>
</svg>
